<svg width="1000" height="500" xmlns="http://www.w3.org/2000/svg" version="1.1" template-width="1920" template-height="1920" sillyvg="true" node-id="1">
 <defs node-id="55">
  <clipPath node-id="8" id="XMLID_2_">
   <path id="svg_1" target-y="176.8" target-x="1000" target-width="699.5" target-height="431.3" node-id="58" fill-rule="nonzero" fill="#000000" d="m1607.7,287.3l-1.9,-9l-2.4,-8.6l-2.9,-8.2l-3.5,-8l-3.9,-7.7l-4.4,-7.4l-4.8,-7l-5.2,-6.7l-5.6,-6.3l-5.9,-5.9l-6.3,-5.5l-6.6,-5.1l-6.8,-4.7l-7.1,-4.3l-7.4,-3.7l-7.5,-3.3l-7.8,-2.9l-7.9,-2.3l-8,-1.8l-8.2,-1.2l-8.2,-0.8l-8.3,-0.1l-8.4,0.4l-8.4,1l-7.2,1.3l-7.1,1.8l-6.8,2.1l-6.7,2.6l-6.5,2.9l-8,4.2l-7.5,4.7l-7.3,5.2l-6.9,5.8l-6.5,6.2l-6,6.6l-5.6,7.1l-5.2,7.5l-4.7,7.8l-4.1,8.1l-3.6,8.5l-3.1,8.9l-2,7.1l-1.6,7.4l-1.2,7.5l-0.7,7.6l-0.4,7.9l-5.5,-4.6l-5.7,-4.2l-5.8,-3.8l-5.9,-3.4l-6.2,-3l-6.2,-2.6l-6.3,-2.2l-6.4,-1.8l-12.9,-2.4l-6.5,-0.6l-6.4,-0.2l-6.4,0.2l-6.4,0.6l-6.2,1.1l-6.2,1.4l-6.1,1.9l-5.9,2.2l-5.8,2.7l-5.6,3.1l-6.4,4.3l-5.7,4.5l-5,4.7l-4.7,5.1l-4,5.1l-3.6,5.2l-3.2,5.3l-5.1,10.3l-2.9,7.5l-2.1,6.5l-2.6,10.9l-0.9,6l-8.7,-4.1l-5.7,-2l-8.5,-2.1l-10.1,-1.2l-5.4,0l-5.9,0.5l-5.7,0.9l-5.9,1.7l-6.3,2.4l-5.4,2.7l-4.8,2.9l-4.1,3.1l-3.9,3.5l-6.2,6.6l-3.7,5.1l-2.6,4.1l-3.2,6.2l-4.9,-1.6l-8.8,-1.9l-5.5,-0.6l-10.6,0l-9.3,1.5l-4.7,1.3l-4.8,1.9l-4.9,2.4l-4.5,2.8l-4,3l-3.7,3.3l-3.4,3.6l-4,5.2l-3.4,5.3l-2.8,5.6l-2.3,5.8l-1.7,5.8l-1.1,5.6l-0.5,5.7l0,5.4l0.5,4.9l1.2,5.1l1.8,4.9l2.5,5l3.3,4.9l3.6,4.6l4.2,4.4l4.9,4.3l5.6,4.1l5.7,3.7l6.3,3.4l6.9,3.2l7.6,2.9l7.6,2.4l8.1,2.1l8.6,1.6l9.2,1.2l9.1,0.8l9.5,0.2l10,-0.3l10.5,-0.9l3.5,5.5l7.8,10.1l8.2,8.4l4.6,3.9l5.2,3.7l5.7,3.7l5.9,3.1l5.8,2.6l5.8,2.1l5.8,1.6l7.8,1.6l7.7,1l7.6,0.4l7.6,-0.2l7.3,-0.6l7,-1l13.4,-2.9l14.7,-4.6l13.5,-5.8l9.4,-4.9l2.3,5.4l4.9,9.1l3.4,5.4l4.4,6l6.9,7.9l4.1,4.1l4.3,3.7l4.8,3.7l5.2,3.4l5.5,3.1l6,2.7l6.6,2.4l6,1.6l6,1.1l6.1,0.8l6.1,0.3l6.2,-0.2l6.1,-0.5l6.2,-1l6.1,-1.4l6,-1.8l6,-2.2l5.8,-2.5l5.8,-3l11,-7l5.2,-4.1l5.1,-4.5l4.8,-4.7l4.6,-5.1l4.3,-5.5l4.1,-5.9l8.4,4l14.8,5.9l9.2,3.1l18.3,4.8l16.6,2.8l8.7,0.9l9,0.5l9.4,0l9.4,-0.5l9.6,-1.2l9.9,-1.9l7.3,-1.8l7.4,-2.3l7.4,-2.8l7.6,-3.3l7.8,-4.1l7.6,-4.5l7.2,-4.9l7,-5.4l6.6,-5.8l6.3,-6l6,-6.5l5.7,-6.7l5.4,-7.1l4.9,-7.2l4.7,-7.5l4.3,-7.7l7.5,-16l3.2,-8.2l5.2,-16.7l2.1,-8.4l2.9,-16.8l0.8,-8.5l0.4,-8.4l0,-8.2l-0.4,-8.2l-0.9,-8.1l-1.3,-7.9l-1.8,-7.7l-2.2,-7.5l-2.7,-7.3l-3.1,-7.1l-3.6,-6.7l-4,-6.5l-4,-5.3l-4.2,-5l-8.8,-8.7l-6.4,-5.2l-6.4,-4.6l-6.6,-4l-6.7,-3.6l-12.9,-5.8l-9.5,-3.4l-8.3,-2.4z"/>
  </clipPath>
  <clipPath node-id="24" id="XMLID_3_">
   <path id="svg_2" target-y="403.1" target-x="211.1" target-width="704.4" target-height="410.49997" node-id="62" fill-rule="nonzero" fill="#000000" d="m316.7,508.1l-0.1,-8.2l0.5,-8l1,-7.8l1.6,-7.6l2.1,-7.6l2.6,-7.2l3.1,-6.9l3.6,-6.6l4.1,-6.3l4.5,-6l4.8,-5.5l5.3,-5.1l5.7,-4.7l6,-4.1l6.3,-3.7l6.6,-3.1l7,-2.5l7,-1.9l7.2,-1.4l7.3,-0.7l7.3,-0.1l7.3,0.4l7.3,1l7.4,1.6l7.1,2.1l7.1,2.7l6.9,3.2l6.7,3.7l6.5,4.2l6.1,4.7l5.9,5.2l5.7,5.8l5.1,6.1l4.7,6.6l4.4,7.1l3.9,7.6l6.6,-4.2l10.5,-5.4l6.4,-2.7l7.5,-2.5l10.9,-2.7l12.4,-1.6l6.5,-0.3l7.1,0.2l7,0.7l6.6,1l6.1,1.3l11.6,3.6l12.3,5.5l11.6,7l10.4,8.1l9.1,8.6l3.8,4.3l5.2,6.6l4.2,6.2l3.7,6.1l2.8,5.4l4,9.1l11.7,-2.8l7.6,-1.2l11.4,-0.9l13.5,0.1l7.2,0.7l7.7,1.1l7.6,1.7l7.8,2.4l8.1,3l5.9,2.7l5.9,3.3l5.9,3.7l6,4.3l6.2,5.3l5.8,5.5l5.3,5.9l4.8,6.3l4.4,6.5l4,6.9l3.4,7l3,7.4l2.5,7.5l1.9,7.7l1.5,7.8l0.9,8l0.4,8.1l-0.2,8l-0.7,8.2l-1.3,8.2l4.1,-3.3l4.2,-2.9l4.4,-2.5l4.6,-2.1l9.5,-3.1l9.6,-1.5l4.9,-0.2l4.9,0.2l9.5,1.7l4.7,1.4l4.5,1.8l4.4,2.2l4.2,2.6l4.8,3.7l4.2,4l3.8,4.5l3.4,4.7l2.8,5l2.3,5.3l1.8,5.4l1.2,5.4l0.7,5.6l0.2,5.6l-0.4,5.4l-1,5.4l-2.9,8.5l-4.1,7.1l-3.3,4.4l-3.6,3.8l-4,3.5l-8.5,6l-11,5.6l-6.2,2.6l-10.7,3.8l-7.1,2l-6.7,1.5l-6.4,0.9l-6.5,0.6l-11.5,0.1l-8,-0.7l-6.7,-0.9l-10.5,-2.4l-5.8,6.3l-7.6,7.5l-11.6,9.9l-6.9,5.3l-7.2,4.9l-7.9,4.7l-8.7,4.7l-13.7,5.9l-15.4,5.1l-14,3.2l-8.1,1.3l-16.4,1.8l-17.6,0.5l-8.8,-0.4l-8.9,-0.9l-8.7,-1.3l-8.6,-1.9l-8.3,-2.5l-6.1,-2.3l-5.8,-2.6l-5.6,-3l-5.4,-3.4l-5,-3.8l-4.7,-4.2l-4.3,-4.7l-4,-5.2l-3.3,-5.2l-2.7,-5.2l-2.1,-5.1l-3.2,-10.3l-1.9,-12.1l-0.4,-6.2l-4.3,7l-8.9,11.9l-8.2,9.3l-10.4,10l-6,4.8l-6.6,4.7l-6.8,4.3l-7.5,4l-8.1,3.7l-6.2,2.3l-6.6,1.9l-6.9,1.6l-7.4,1.2l-7.4,0.7l-7.6,0.3l-7.9,-0.2l-7.9,-0.7l-7.9,-1.1l-7.9,-1.5l-7.8,-2l-7.5,-2.4l-7.4,-2.9l-7.1,-3.3l-6.6,-3.7l-6.3,-4l-4.4,-3.5l-7.8,-7.4l-3.3,-4l-3.1,-4.3l-2.5,-4.6l-2.1,-4.7l-1.7,-5l-1.3,-5.7l-0.7,-5.5l0,-5.3l1.1,-10.3l1.1,-4.7l2,-6.9l2.3,-5.7l-12.2,6.1l-13.4,5.3l-13.4,3.6l-11.7,1.7l-6.1,0.4l-6.2,-0.1l-6.3,-0.5l-6.3,-1.1l-6.3,-1.7l-6.4,-2.4l-5.8,-2.9l-5.5,-3.3l-5.2,-3.8l-4.9,-4.4l-4.6,-4.7l-4.3,-5l-3.9,-5.5l-3.7,-5.8l-3.3,-6.1l-2.9,-6.3l-2.6,-6.6l-4.2,-13.7l-2.6,-14.2l-0.8,-7.3l-0.4,-14.5l1.3,-14.4l1.2,-7.1l1.6,-6.9l2.1,-6.8l2.5,-6.6l2.9,-6.4l3.4,-6.1l3.8,-5.8l4.3,-5.5l4.8,-5.2l4.9,-4.7l5.1,-4l5.5,-3.7l5.4,-3.2l5.4,-2.7l5.6,-2.5l10.7,-3.7l7.9,-2l7,-1.4l12.2,-1.6l8,-0.4z"/>
  </clipPath>
  <clipPath node-id="35" id="XMLID_4_">
   <path id="svg_3" target-y="857.7" target-x="811.6" target-width="975.1" target-height="368.7" node-id="66" fill-rule="nonzero" fill="#000000" d="m916.7,991.7l-6.8,-0.7l-6.7,-0.4l-13.1,0.6l-6.4,0.9l-6.3,1.3l-6.2,1.6l-5.9,2l-5.9,2.5l-5.5,2.7l-5.3,3.2l-5.1,3.5l-4.8,3.8l-4.4,4.2l-4.2,4.5l-3.8,4.9l-3.9,6l-3.3,6.2l-2.6,6.3l-2,6.5l-1.5,6.7l-1,6.7l-0.4,6.8l0.1,6.9l0.5,6.8l1.1,6.7l1.5,6.7l2,6.7l2.4,6.5l2.8,6.3l3.1,6l3.6,5.9l3.9,5.6l4.3,5.3l4.5,4.9l4.9,4.6l4.9,4l4.9,3.5l9.9,5.6l6.8,3l6.7,2.4l6.6,1.7l13,2.3l6,0.5l8.8,0.2l7.4,-0.3l7,-0.6l11.1,-2l3.2,4.6l8,9.9l8.8,8.9l4.9,4.4l5.6,4.4l6.2,4.4l6.6,3.9l7.2,3.8l7.9,3.4l12.8,4.2l12.2,2.5l8.1,0.9l7.9,0.4l7.5,-0.2l7.5,-0.5l13.9,-2.2l12.8,-3.3l13.7,-4.9l12.6,-5.9l9.2,-5.3l10.4,-7.7l7.5,-6.6l11.9,6.1l8.1,3.5l10.3,3.9l15.2,4.6l9,2.1l8.9,1.6l9.7,1.3l10.4,0.8l16,0.2l8.5,-0.5l8.9,-1l9,-1.4l16.6,-3.6l7.6,-2.3l10.1,-3.6l9.2,-3.7l8.4,-4l8.2,-4.4l13.7,-8.5l9.1,-6.6l7,-5.6l10,-9.1l12.4,5.8l7.2,2.7l8.2,2.5l11.5,2.3l6.3,0.7l6.3,0.3l6.5,-0.2l6.9,-0.6l11.5,-2.5l5,-1.6l4.6,-1.9l6,-3.1l5.5,-3.5l5.1,-3.9l9.4,-8.8l4.5,-4.9l20.1,-23.7l7.6,-8.2l5.4,-5.2l5.9,-5.2l6.4,-5.2l6.8,-4.7l7.6,-4.5l8.5,-4.4l7.6,-3.3l7.1,-2.5l6.6,-1.9l6.7,-1.4l6.5,-1l6.2,-0.5l9.4,-0.3l9.2,0.4l27.9,2.3l10,0.5l13.7,-0.1l14.9,-1.3l8,-1.3l8.6,-1.9l8.4,-2.3l9.2,-3l10,-3.9l8.3,-3.6l15.4,-7.7l10.8,-6.2l9.4,-6l8.8,-6.2l6.8,-5.5l4.3,-3.7l5.4,-5.6l1.6,-2.3l1,-2.6l-0.2,-0.7l-1.2,-0.7l-3.3,0.7l-34.6,15.3l-17.7,6.2l-15.8,4l-8.2,1.5l-8.6,1l-9,0.6l-8.2,0l-7.8,-0.4l-7.5,-0.9l-7.1,-1.3l-7.1,-1.7l-13.5,-4.5l-6.5,-2.7l-8.4,-4.1l-8.2,-4.6l-8.1,-5l-11.7,-8.1l-11.8,-8.8l-35.5,-27.9l-21.3,-15.1l-18.4,-11.2l-9.6,-5.1l-10.2,-4.7l-10.8,-4.3l-8.2,-2.8l-8.5,-2.6l-9.1,-2.2l-9.5,-1.9l-15,-2l-17.9,-1.1l-9.9,0.1l-10.8,0.5l-10.8,1.1l-11.7,1.7l-12.7,2.5l-19.2,5l-21.5,7.1l-3.4,-6.1l-7.1,-10.1l-6.7,-7.6l-4.3,-4.2l-4.5,-4l-5.2,-3.8l-5.8,-3.9l-6,-3.3l-6.8,-3.1l-7.4,-2.8l-7.6,-2.1l-7.2,-1.4l-6.9,-0.8l-6.9,-0.3l-6.3,0.1l-11.8,1.4l-10,2.2l-11.5,3.9l-6.4,3l-4.5,-4.9l-8.5,-7.7l-7.7,-5.6l-9.6,-5.6l-11.5,-4.7l-6.2,-1.9l-6.7,-1.4l-7.4,-1l-7.2,-0.4l-6.7,0.1l-6.3,0.6l-6.3,1l-10.9,2.9l-7.5,2.9l-6.2,2.9l-9.7,5.7l-5.4,4l-11.9,-1.3l-7.3,-0.2l-7.9,0.3l-9.3,1l-13,2.5l-7.1,2l-7,2.4l-7.1,3.1l-7.3,3.8l-10.5,6.8l-10.6,8.8l-5.7,5.8l-5,5.7l-4.3,5.8l-3.9,6.1l-3.3,6l-2.9,5.8l-4.5,11.6l-3.6,13.3l-2.1,13.2l-0.5,11.4z"/>
  </clipPath>
  <clipPath node-id="47" id="XMLID_5_">
   <path id="svg_4" target-y="1273.9" target-x="133.3" target-width="951.8" target-height="469.29993" node-id="70" fill-rule="nonzero" fill="#000000" d="m143.9,-1098.6l-20.1,-1.1l-16.6,0.6l-8.1,0.8l-13.9,2.5l-6,1.6l-7.9,2.7l-6.8,2.8l-5.8,3.1l-5.6,3.4l-4.8,3.5l-4,3.3l-4.1,4l-6.3,7.3l-3.9,5.7l-9.8,16.1l-5,6.9l-3,3.4l-3.3,3.2l-3.9,3.2l-4.7,3.3l-6,3.5l-6,2.8l-6,2.3l-6.2,1.8l-11.8,2.3l-8.6,0.9l-7.9,0.3l-22.9,-0.7l-2.2,0.2l-1,0.4l-0.4,0.4l0.2,0.7l1,0.8l2.4,1.1l3.9,1.2l43.4,10.8l7.4,2.3l7.9,2.8l7.4,3.2l6.8,3.3l6.3,3.5l11.8,8.1l10.3,8.8l6.4,6.4l5.9,6.6l5.4,6.9l7.7,10.7l7.3,11.1l21,34l7.5,11.3l5.4,7.3l5.6,7.1l6.1,7l6.5,6.7l7.1,6.4l7.7,6.2l6,4.2l6.5,4.1l7.1,3.9l7.6,3.8l7.5,3.2l15.8,5.5l8.3,2.3l17,3.4l8.6,1.1l8.8,0.8l8.8,0.4l8.8,-0.1l8.6,-0.5l8.7,-0.9l8.6,-1.3l8.3,-1.9l8.2,-2.3l8,-2.7l7.7,-3.3l7.5,-3.7l7.1,-4.3l6.7,-4.8l6.4,-5.3l5.2,-5l7.9,-9.1l4.6,6.2l6.4,7.6l10,10.2l6.2,5.6l6.5,5.3l7.3,5.2l8.1,5.2l15.1,8.3l7.8,3.6l8.4,3.3l9.8,3.3l6.8,1.8l14.9,2.8l7.8,0.8l8.2,0.3l8.5,-0.2l12.9,-1.4l13.7,-3.2l7.4,-2.4l6.8,-2.6l6.3,-3l6.2,-3.2l10.8,-6.9l7.3,-5.5l6.1,-5.2l9.9,-10l8.9,2.6l11.3,2.8l16.6,2.9l9.6,1.2l9.7,0.7l10.4,0.2l11.1,-0.3l16.8,-1.6l18.2,-3.3l13.7,-3.4l18.2,-5.7l13.6,-5.6l7.4,-3.5l7.2,-3.8l7.3,-4.4l7.4,-5l7.1,-5.4l7,-6l6.9,-6.8l4.8,-5.4l4.6,-5.8l4.5,-6.2l4.2,-6.8l6.7,-12.9l2.6,-6.1l4.3,-12.3l3.4,-14.1l1.2,-7.5l1.2,-13.1l7.7,-2.6l10.9,-4.8l6.1,-3.4l6.5,-4.4l8.3,-6.9l4.2,-4.2l3.8,-4.5l3.6,-5l3.3,-5.6l2.5,-5.1l3.9,-10.7l1.3,-5.6l1.3,-7.6l0.6,-7.6l0,-7.7l-0.6,-7.7l-1.2,-7.6l-1.8,-7.5l-2.4,-7.3l-2.9,-7l-3.4,-6.6l-2.9,-4.8l-6.7,-8.7l-3.7,-4l-4.1,-3.6l-4.2,-3.3l-4.6,-2.9l-4.7,-2.5l-5.8,-2.3l-5.7,-1.7l-5.5,-1.1l-5.6,-0.6l-10.3,-0.1l-7.2,0.8l-6.1,1.1l-9.5,2.6l-7.5,-11.9l-10.1,-13.3l-6.8,-7.7l-10.3,-10.3l-12.5,-10.6l-6.9,-5.1l-7.7,-5.1l-7.8,-4.7l-8.5,-4.4l-9.3,-4.2l-7,-2.7l-15.1,-4.7l-8.3,-2l-9.3,-1.7l-9,-1.1l-8.6,-0.7l-8.3,-0.2l-16.5,0.7l-14.9,2l-9.7,2.1l-9,2.3l-8.1,2.6l-8.1,3l-13.4,5.8l-8.8,4.5l-6.4,3.8l-8.4,5.4l-3.5,-6.6l-6.7,-10.5l-4.5,-6.1l-5.7,-6.8l-8.8,-8.9l-5.2,-4.6l-5.5,-4.3l-6,-4.2l-6.6,-4l-6.9,-3.7l-7.5,-3.3l-8.1,-3l-10.4,-2.9l-7.1,-1.5l-9,-1.3l-6.2,-0.6l-14.1,-0.1l-7.3,0.5l-7.7,1.1l-8.1,1.8l-6,1.6l-12.2,4.8l-6.4,3.1l-6.2,3.5l-10.4,7.4l-4.8,3.9l-7.6,7.4l-8.5,10.1l-7.9,-4.9l-5.5,-3l-13.6,-6.1l-7.9,-2.9l-8.9,-2.6l-12.5,-2.4l-6.7,-0.7l-6.7,-0.3l-6.9,0.3l-7.1,0.7l-10.5,2.4l-5.3,1.8l-5.4,2.2l-5.2,2.6l-4.9,3l-8.8,6.5l-5.4,5l-4.9,5.3l-4.3,5.5l-4,5.8l-6.8,11.9l-2.9,6.1l-4.6,11.9l-2.8,8.7l-2.1,7.8l-2.8,13.4l-1.3,8.7l-0.9,8.7l-0.4,6.9z"/>
  </clipPath>
 </defs>
 <g>
  <title>Layer 1</title>
  <g id="svg_5" node-id="199">
   <g id="svg_6" node-id="203">
    <g id="svg_7" node-id="207">
     <path id="svg_8" visibility="hidden" target-y="176.8" target-x="1000" target-width="699.5" target-height="431.3" node-id="82" hidden="true" group-id="1,5,9" fill-rule="nonzero" fill="#fcefcd" d="m1606.7,287.3l-1.9,-9l-2.4,-8.6l-2.9,-8.2l-3.5,-8l-3.9,-7.7l-4.4,-7.4l-4.8,-7l-5.2,-6.7l-5.6,-6.3l-5.9,-5.9l-6.3,-5.5l-6.6,-5.1l-6.8,-4.7l-7.1,-4.3l-7.4,-3.7l-7.5,-3.3l-7.8,-2.9l-7.9,-2.3l-8,-1.8l-8.2,-1.2l-8.2,-0.8l-8.3,-0.1l-8.4,0.4l-8.4,1l-7.2,1.3l-7.1,1.8l-6.8,2.1l-6.7,2.6l-6.5,2.9l-8,4.2l-7.5,4.7l-7.3,5.2l-6.9,5.8l-6.5,6.2l-6,6.6l-5.6,7.1l-5.2,7.5l-4.7,7.8l-4.1,8.1l-3.6,8.5l-3.1,8.9l-2,7.1l-1.6,7.4l-1.2,7.5l-0.7,7.6l-0.4,7.9l-5.5,-4.6l-5.7,-4.2l-5.8,-3.8l-5.9,-3.4l-6.2,-3l-6.2,-2.6l-6.3,-2.2l-6.4,-1.8l-12.9,-2.4l-6.5,-0.6l-6.4,-0.2l-6.4,0.2l-6.4,0.6l-6.2,1.1l-6.2,1.4l-6.1,1.9l-5.9,2.2l-5.8,2.7l-5.6,3.1l-6.4,4.3l-5.7,4.5l-5,4.7l-4.7,5.1l-4,5.1l-3.6,5.2l-3.2,5.3l-5.1,10.3l-2.9,7.5l-2.1,6.5l-2.6,10.9l-0.9,6l-8.7,-4.1l-5.7,-2l-8.5,-2.1l-10.1,-1.2l-5.4,0l-5.9,0.5l-5.7,0.9l-5.9,1.7l-6.3,2.4l-5.4,2.7l-4.8,2.9l-4.1,3.1l-3.9,3.5l-6.2,6.6l-3.7,5.1l-2.6,4.1l-3.2,6.2l-4.9,-1.6l-8.8,-1.9l-5.5,-0.6l-10.6,0l-9.3,1.5l-4.7,1.3l-4.8,1.9l-4.9,2.4l-4.5,2.8l-4,3l-3.7,3.3l-3.4,3.6l-4,5.2l-3.4,5.3l-2.8,5.6l-2.3,5.8l-1.7,5.8l-1.1,5.6l-0.5,5.7l0,5.4l0.5,4.9l1.2,5.1l1.8,4.9l2.5,5l3.3,4.9l3.6,4.6l4.2,4.4l4.9,4.3l5.6,4.1l5.7,3.7l6.3,3.4l6.9,3.2l7.6,2.9l7.6,2.4l8.1,2.1l8.6,1.6l9.2,1.2l9.1,0.8l9.5,0.2l10,-0.3l10.5,-0.9l3.5,5.5l7.8,10.1l8.2,8.4l4.6,3.9l5.2,3.7l5.7,3.7l5.9,3.1l5.8,2.6l5.8,2.1l5.8,1.6l7.8,1.6l7.7,1l7.6,0.4l7.6,-0.2l7.3,-0.6l7,-1l13.4,-2.9l14.7,-4.6l13.5,-5.8l9.4,-4.9l2.3,5.4l4.9,9.1l3.4,5.4l4.4,6l6.9,7.9l4.1,4.1l4.3,3.7l4.8,3.7l5.2,3.4l5.5,3.1l6,2.7l6.6,2.4l6,1.6l6,1.1l6.1,0.8l6.1,0.3l6.2,-0.2l6.1,-0.5l6.2,-1l6.1,-1.4l6,-1.8l6,-2.2l5.8,-2.5l5.8,-3l11,-7l5.2,-4.1l5.1,-4.5l4.8,-4.7l4.6,-5.1l4.3,-5.5l4.1,-5.9l8.4,4l14.8,5.9l9.2,3.1l18.3,4.8l16.6,2.8l8.7,0.9l9,0.5l9.4,0l9.4,-0.5l9.6,-1.2l9.9,-1.9l7.3,-1.8l7.4,-2.3l7.4,-2.8l7.6,-3.3l7.8,-4.1l7.6,-4.5l7.2,-4.9l7,-5.4l6.6,-5.8l6.3,-6l6,-6.5l5.7,-6.7l5.4,-7.1l4.9,-7.2l4.7,-7.5l4.3,-7.7l7.5,-16l3.2,-8.2l5.2,-16.7l2.1,-8.4l2.9,-16.8l0.8,-8.5l0.4,-8.4l0,-8.2l-0.4,-8.2l-0.9,-8.1l-1.3,-7.9l-1.8,-7.7l-2.2,-7.5l-2.7,-7.3l-3.1,-7.1l-3.6,-6.7l-4,-6.5l-4,-5.3l-4.2,-5l-8.8,-8.7l-6.4,-5.2l-6.4,-4.6l-6.6,-4l-6.7,-3.6l-12.9,-5.8l-9.5,-3.4l-8.3,-2.4z"/>
    </g>
    <g id="svg_9" node-id="208">
     <g id="svg_10" node-id="85" group-id="1,5,10" clip-path="url(#XMLID_2_)">
      <path id="svg_11" visibility="hidden" target-y="382.6" target-x="925.2" target-width="363.99994" target-height="214.19998" node-id="87" hidden="true" group-id="1,5,10" fill-rule="nonzero" fill="#e98a71" d="m935.9,382.6l20.2,17.5l17.2,13.6l10,7.5l10.5,7.2l11.1,7.3l11.4,6.8l11.5,6.2l7.9,3.8l15.4,6l7.7,2.3l7.4,1.6l7.1,1l5.3,0.2l5.1,-0.2l4.9,-0.7l12.6,-3.3l6.9,-1.5l5.8,-0.8l6,-0.4l5,0l4.2,0.5l4.2,0.8l3.5,1.1l5.6,2.9l4.1,3.4l2.2,2.8l1.5,2.6l1.1,2.4l1,3.5l6.4,6.8l10,8.5l6.7,4.6l10,5.6l5.8,2.5l5.9,2.2l6.4,1.7l6.8,1.3l5.2,0.6l11,0l5.9,-0.6l6.4,-1.1l5.8,-1.6l5.4,-1.8l10,-4.6l4.3,-2.6l6.1,-4.1l4.9,-3.9l4.4,-4.1l7.7,-8.4l-3.4,7.3l-3.5,10.5l-1.4,6.2l-1.1,7.2l-0.4,10.1l0.2,5.7l0.7,6.1l2.2,10.6l2.3,7.2l2.4,5.8l4.8,9.1l-10,5.4l-7.8,5.4l-7.9,6.9l-8.9,10.1l-23.2,2.7l-11,0.9l-28.1,1.5l-16.4,0.4l-16.9,0l-30.6,-1.3l-25.5,-2.3l-12.8,-1.7l-12.8,-2.1l-12.7,-2.5l-12.7,-3l-12.4,-3.5l-12.1,-3.9l-8.9,-3.4l-8.7,-3.6l-8.3,-4l-8.1,-4.3l-7.9,-4.7l-7.4,-5.1l-7.1,-5.4l-6.7,-5.8l-5.1,-4.9l-4.7,-5.2l-4.5,-5.5l-4.1,-5.8l-3.8,-6.1l-3.5,-6.3l-3,-6.6l-2.8,-6.9l-2.3,-7.4l-2,-7.7l-1.5,-7.7l-1,-8.1l-0.6,-8.6l-0.2,-9.1l0.3,-9.6l0.8,-9.2l1.3,-9.8l1.8,-10.4l2.5,-11l3,-11.7z"/>
     </g>
    </g>
    <g id="svg_12" node-id="209">
     <g id="svg_13" node-id="90" group-id="1,5,11" clip-path="url(#XMLID_2_)">
      <path id="svg_14" visibility="hidden" target-y="341.6" target-x="1260.2" target-width="472.30005" target-height="330.1" node-id="92" hidden="true" group-id="1,5,11" fill-rule="nonzero" fill="#e98a71" d="m1684.4,341.6l2.6,13.1l1.7,16.1l0.4,9.9l-0.5,14l-1.7,15.3l-1.6,7.9l-2.1,8.1l-2.5,8l-3.2,8.1l-3.8,8.1l-3.2,5.9l-3.7,5.8l-4.2,5.8l-4.7,5.8l-6,6.5l-6.3,5.8l-6.3,5.2l-6.8,4.7l-6.7,4.1l-6.8,3.6l-7,3.2l-13.7,5.1l-10.4,2.9l-9.8,2.2l-18.4,2.8l-15.6,1.6l-10.7,0.7l-10.1,0.2l-9.5,-0.4l-9.6,-0.7l-17,-2.3l-11.9,-2.5l-10.2,-2.6l-16.9,-5.6l-4,7.1l-2.8,4.2l-3.8,4.9l-4.2,4.8l-5.3,5l-3.8,3.1l-9,6.1l-6.1,3.2l-5.9,2.5l-5.7,1.8l-5.8,1.5l-10.6,1.5l-7.5,0.3l-6.4,-0.2l-10.4,-1l-9.4,-1.5l-6,-1.3l-11.8,-3.6l-10,-4.5l-4.9,-2.8l-4.7,-3.3l-4.7,-3.8l-6.4,-6.6l-2.9,-3.8l-2.7,-4.3l-4.1,-8.4l-2.9,-10l-0.9,-5.3l-0.7,-9.2l-23.6,72.9l126.4,114.4l147.1,-45.9l43.8,-14.1l46.6,-20.6l26.3,-12.7l11,-5.8l10.8,-6.2l9.5,-6.1l8.4,-6l6,-5l5.5,-5l5,-5.1l4.4,-5.3l4.1,-5.6l3.7,-5.9l3.2,-6.2l2.9,-6.7l2.4,-6.8l2,-6.7l1.4,-6.8l1,-6.7l0.8,-9.1l0,-9l-0.5,-9l-1.1,-8.9l-1.6,-8.7l-2,-8.5l-5.1,-16.6l-3,-7.9l-4.9,-11.4l-5.1,-10.4l-5.3,-9.9l-10,-16.4l-10.5,-15.1z"/>
     </g>
    </g>
    <path id="svg_15" visibility="hidden" target-y="176.8" target-x="1000" target-width="699.5" target-height="431.3" stroke-width="5.7979" stroke-linecap="round" stroke="#47161c" node-id="97" hidden="true" group-id="1,5,12" fill="none" d="m1606.7,287.3l-1.9,-9l-2.4,-8.6l-2.9,-8.2l-3.5,-8l-3.9,-7.7l-4.4,-7.4l-4.8,-7l-5.2,-6.7l-5.6,-6.3l-5.9,-5.9l-6.3,-5.5l-6.6,-5.1l-6.8,-4.7l-7.1,-4.3l-7.4,-3.7l-7.5,-3.3l-7.8,-2.9l-7.9,-2.3l-8,-1.8l-8.2,-1.2l-8.2,-0.8l-8.3,-0.1l-8.4,0.4l-8.4,1l-7.2,1.3l-7.1,1.8l-6.8,2.1l-6.7,2.6l-6.5,2.9l-8,4.2l-7.5,4.7l-7.3,5.2l-6.9,5.8l-6.5,6.2l-6,6.6l-5.6,7.1l-5.2,7.5l-4.7,7.8l-4.1,8.1l-3.6,8.5l-3.1,8.9l-2,7.1l-1.6,7.4l-1.2,7.5l-0.7,7.6l-0.4,7.9l-5.5,-4.6l-5.7,-4.2l-5.8,-3.8l-5.9,-3.4l-6.2,-3l-6.2,-2.6l-6.3,-2.2l-6.4,-1.8l-12.9,-2.4l-6.5,-0.6l-6.4,-0.2l-6.4,0.2l-6.4,0.6l-6.2,1.1l-6.2,1.4l-6.1,1.9l-5.9,2.2l-5.8,2.7l-5.6,3.1l-6.4,4.3l-5.7,4.5l-5,4.7l-4.7,5.1l-4,5.1l-3.6,5.2l-3.2,5.3l-5.1,10.3l-2.9,7.5l-2.1,6.5l-2.6,10.9l-0.9,6l-8.7,-4.1l-5.7,-2l-8.5,-2.1l-10.1,-1.2l-5.4,0l-5.9,0.5l-5.7,0.9l-5.9,1.7l-6.3,2.4l-5.4,2.7l-4.8,2.9l-4.1,3.1l-3.9,3.5l-6.2,6.6l-3.7,5.1l-2.6,4.1l-3.2,6.2l-4.9,-1.6l-8.8,-1.9l-5.5,-0.6l-10.6,0l-9.3,1.5l-4.7,1.3l-4.8,1.9l-4.9,2.4l-4.5,2.8l-4,3l-3.7,3.3l-3.4,3.6l-4,5.2l-3.4,5.3l-2.8,5.6l-2.3,5.8l-1.7,5.8l-1.1,5.6l-0.5,5.7l0,5.4l0.5,4.9l1.2,5.1l1.8,4.9l2.5,5l3.3,4.9l3.6,4.6l4.2,4.4l4.9,4.3l5.6,4.1l5.7,3.7l6.3,3.4l6.9,3.2l7.6,2.9l7.6,2.4l8.1,2.1l8.6,1.6l9.2,1.2l9.1,0.8l9.5,0.2l10,-0.3l10.5,-0.9l3.5,5.5l7.8,10.1l8.2,8.4l4.6,3.9l5.2,3.7l5.7,3.7l5.9,3.1l5.8,2.6l5.8,2.1l5.8,1.6l7.8,1.6l7.7,1l7.6,0.4l7.6,-0.2l7.3,-0.6l7,-1l13.4,-2.9l14.7,-4.6l13.5,-5.8l9.4,-4.9l2.3,5.4l4.9,9.1l3.4,5.4l4.4,6l6.9,7.9l4.1,4.1l4.3,3.7l4.8,3.7l5.2,3.4l5.5,3.1l6,2.7l6.6,2.4l6,1.6l6,1.1l6.1,0.8l6.1,0.3l6.2,-0.2l6.1,-0.5l6.2,-1l6.1,-1.4l6,-1.8l6,-2.2l5.8,-2.5l5.8,-3l11,-7l5.2,-4.1l5.1,-4.5l4.8,-4.7l4.6,-5.1l4.3,-5.5l4.1,-5.9l8.4,4l14.8,5.9l9.2,3.1l18.3,4.8l16.6,2.8l8.7,0.9l9,0.5l9.4,0l9.4,-0.5l9.6,-1.2l9.9,-1.9l7.3,-1.8l7.4,-2.3l7.4,-2.8l7.6,-3.3l7.8,-4.1l7.6,-4.5l7.2,-4.9l7,-5.4l6.6,-5.8l6.3,-6l6,-6.5l5.7,-6.7l5.4,-7.1l4.9,-7.2l4.7,-7.5l4.3,-7.7l7.5,-16l3.2,-8.2l5.2,-16.7l2.1,-8.4l2.9,-16.8l0.8,-8.5l0.4,-8.4l0,-8.2l-0.4,-8.2l-0.9,-8.1l-1.3,-7.9l-1.8,-7.7l-2.2,-7.5l-2.7,-7.3l-3.1,-7.1l-3.6,-6.7l-4,-6.5l-4,-5.3l-4.2,-5l-8.8,-8.7l-6.4,-5.2l-6.4,-4.6l-6.6,-4l-6.7,-3.6l-12.9,-5.8l-9.5,-3.4l-8.3,-2.4z"/>
   </g>
   <path id="svg_16" visibility="hidden" target-y="307" target-x="1349.6" target-width="19.30005" target-height="24.70001" stroke-width="5.7979" stroke-linecap="round" stroke="#47161c" node-id="101" hidden="true" group-id="1" fill="none" d="m1369.9,331.7l-3.6,-1.6l-2.6,-1.6l-2.6,-1.9l-4.5,-4.6l-3.2,-5.1l-1.2,-2.8l-1.6,-7.1"/>
   <path id="svg_17" visibility="hidden" target-y="366.8" target-x="1181" target-width="20.30005" target-height="16.10001" stroke-width="5.7979" stroke-linecap="round" stroke="#47161c" node-id="103" hidden="true" group-id="1" fill="none" d="m1202.3,382.9l-7.3,-4l-3.1,-2.2l-3.5,-2.8l-3.3,-3.2l-3.1,-3.9"/>
   <path id="svg_18" visibility="hidden" target-y="397.1" target-x="1082.6" target-width="2.30005" target-height="25.60001" stroke-width="5.7979" stroke-linecap="round" stroke="#47161c" node-id="105" hidden="true" group-id="1" fill="none" d="m1085.3,422.7l-1.1,-3.9l-0.6,-6.7l0.2,-4.6l0.7,-4.8l1.4,-5.6"/>
   <path id="svg_19" visibility="hidden" target-y="477.7" target-x="1276.8" target-width="9.59998" target-height="69.70001" stroke-width="5.7979" stroke-linecap="round" stroke="#47161c" node-id="107" hidden="true" group-id="1" fill="none" d="m1287.4,477.7l-4.1,11.4l-1.6,5.6l-2.8,13.7l-0.8,7.6l-0.3,10.5l0.4,5.3l0.8,5.3l1.2,5.2l1.8,5.1"/>
   <path id="svg_20" visibility="hidden" target-y="538.4" target-x="1450.9" target-width="6.79993" target-height="20.29999" stroke-width="5.7979" stroke-linecap="round" stroke="#47161c" node-id="109" hidden="true" group-id="1" fill="none" d="m1458.7,538.4l-2.4,10.7l-2.7,6.7l-1.7,2.9"/>
  </g>
  <g id="svg_32" node-id="201">
   <g id="svg_33" node-id="205">
    <g id="svg_34" node-id="212">
     <path id="svg_35" visibility="hidden" target-y="857.7" target-x="811.6" target-width="975.1" target-height="368.7" node-id="146" hidden="true" group-id="3,7,14" fill-rule="nonzero" fill="#fcefcd" d="m916.7,991.7l-6.8,-0.7l-6.7,-0.4l-13.1,0.6l-6.4,0.9l-6.3,1.3l-6.2,1.6l-5.9,2l-5.9,2.5l-5.5,2.7l-5.3,3.2l-5.1,3.5l-4.8,3.8l-4.4,4.2l-4.2,4.5l-3.8,4.9l-3.9,6l-3.3,6.2l-2.6,6.3l-2,6.5l-1.5,6.7l-1,6.7l-0.4,6.8l0.1,6.9l0.5,6.8l1.1,6.7l1.5,6.7l2,6.7l2.4,6.5l2.8,6.3l3.1,6l3.6,5.9l3.9,5.6l4.3,5.3l4.5,4.9l4.9,4.6l4.9,4l4.9,3.5l9.9,5.6l6.8,3l6.7,2.4l6.6,1.7l13,2.3l6,0.5l8.8,0.2l7.4,-0.3l7,-0.6l11.1,-2l3.2,4.6l8,9.9l8.8,8.9l4.9,4.4l5.6,4.4l6.2,4.4l6.6,3.9l7.2,3.8l7.9,3.4l12.8,4.2l12.2,2.5l8.1,0.9l7.9,0.4l7.5,-0.2l7.5,-0.5l13.9,-2.2l12.8,-3.3l13.7,-4.9l12.6,-5.9l9.2,-5.3l10.4,-7.7l7.5,-6.6l11.9,6.1l8.1,3.5l10.3,3.9l15.2,4.6l9,2.1l8.9,1.6l9.7,1.3l10.4,0.8l16,0.2l8.5,-0.5l8.9,-1l9,-1.4l16.6,-3.6l7.6,-2.3l10.1,-3.6l9.2,-3.7l8.4,-4l8.2,-4.4l13.7,-8.5l9.1,-6.6l7,-5.6l10,-9.1l12.4,5.8l7.2,2.7l8.2,2.5l11.5,2.3l6.3,0.7l6.3,0.3l6.5,-0.2l6.9,-0.6l11.5,-2.5l5,-1.6l4.6,-1.9l6,-3.1l5.5,-3.5l5.1,-3.9l9.4,-8.8l4.5,-4.9l20.1,-23.7l7.6,-8.2l5.4,-5.2l5.9,-5.2l6.4,-5.2l6.8,-4.7l7.6,-4.5l8.5,-4.4l7.6,-3.3l7.1,-2.5l6.6,-1.9l6.7,-1.4l6.5,-1l6.2,-0.5l9.4,-0.3l9.2,0.4l27.9,2.3l10,0.5l13.7,-0.1l14.9,-1.3l8,-1.3l8.6,-1.9l8.4,-2.3l9.2,-3l10,-3.9l8.3,-3.6l15.4,-7.7l10.8,-6.2l9.4,-6l8.8,-6.2l6.8,-5.5l4.3,-3.7l5.4,-5.6l1.6,-2.3l1,-2.6l-0.2,-0.7l-1.2,-0.7l-3.3,0.7l-34.6,15.3l-17.7,6.2l-15.8,4l-8.2,1.5l-8.6,1l-9,0.6l-8.2,0l-7.8,-0.4l-7.5,-0.9l-7.1,-1.3l-7.1,-1.7l-13.5,-4.5l-6.5,-2.7l-8.4,-4.1l-8.2,-4.6l-8.1,-5l-11.7,-8.1l-11.8,-8.8l-35.5,-27.9l-21.3,-15.1l-18.4,-11.2l-9.6,-5.1l-10.2,-4.7l-10.8,-4.3l-8.2,-2.8l-8.5,-2.6l-9.1,-2.2l-9.5,-1.9l-15,-2l-17.9,-1.1l-9.9,0.1l-10.8,0.5l-10.8,1.1l-11.7,1.7l-12.7,2.5l-19.2,5l-21.5,7.1l-3.4,-6.1l-7.1,-10.1l-6.7,-7.6l-4.3,-4.2l-4.5,-4l-5.2,-3.8l-5.8,-3.9l-6,-3.3l-6.8,-3.1l-7.4,-2.8l-7.6,-2.1l-7.2,-1.4l-6.9,-0.8l-6.9,-0.3l-6.3,0.1l-11.8,1.4l-10,2.2l-11.5,3.9l-6.4,3l-4.5,-4.9l-8.5,-7.7l-7.7,-5.6l-9.6,-5.6l-11.5,-4.7l-6.2,-1.9l-6.7,-1.4l-7.4,-1l-7.2,-0.4l-6.7,0.1l-6.3,0.6l-6.3,1l-10.9,2.9l-7.5,2.9l-6.2,2.9l-9.7,5.7l-5.4,4l-11.9,-1.3l-7.3,-0.2l-7.9,0.3l-9.3,1l-13,2.5l-7.1,2l-7,2.4l-7.1,3.1l-7.3,3.8l-10.5,6.8l-10.6,8.8l-5.7,5.8l-5,5.7l-4.3,5.8l-3.9,6.1l-3.3,6l-2.9,5.8l-4.5,11.6l-3.6,13.3l-2.1,13.2l-0.5,11.4z"/>
    </g>
    <g id="svg_36" node-id="213">
     <g id="svg_37" node-id="149" group-id="3,7,15" clip-path="url(#XMLID_4_)">
      <path id="svg_38" visibility="hidden" target-y="963.8" target-x="754.2" target-width="1062.3" target-height="348.3" node-id="151" hidden="true" group-id="3,7,15" fill-rule="nonzero" fill="#e98a71" d="m874.7,994l-3.4,6.7l-4.3,10.7l-2,6.4l-1.8,7.6l-1.5,11l-0.4,6.1l0,6.1l0.4,6.5l0.8,6.9l1.3,6.2l3.1,10.8l2.4,6.4l3.4,7.3l5.7,10l3.6,5.2l3.9,5l4.6,5l5.1,5l5.6,4.7l5.6,4l5.7,3.3l5.9,2.9l6.2,2.6l13.2,3.9l15.1,3.2l12.1,2l23.8,3.4l11,1.3l15.4,1.1l16.9,0l8.8,-0.6l9.4,-1.1l9.3,-1.6l9.7,-2.3l10.3,-3l9.3,-3.3l8.3,-3.4l7.8,-3.7l6.7,-3.5l11.3,-6.8l9.8,5.2l9.2,4.3l8.6,3.4l16.6,5.2l7.1,1.7l10.5,1.9l8,1.1l9.3,0.7l9,0.2l8.6,-0.3l8.4,-0.6l8.4,-1.1l15.8,-3.1l17.3,-5l9.1,-3.3l8.4,-3.5l15.7,-7.6l16,-9.4l7.2,-4.8l10.1,-7.4l8.9,-7.1l6.4,-5.6l6,5l8.7,5.6l5.2,2.5l6,2.2l8.6,1.8l4.8,0.5l6.2,-0.3l4.4,-0.7l6.5,-1.7l7.2,-2.4l9.8,-4.1l9.1,-4.4l7.2,-4l6.6,-4.2l22.7,-15.9l6.6,-4.2l6.6,-3.8l12.3,-5.8l9.2,-3.5l9.1,-2.9l18.6,-4.9l14.9,-3l13.4,-1.3l8.8,-0.1l8.4,0.3l8,0.9l15.7,2.6l40.3,9.8l11,2.1l7.4,1l7.6,0.7l7.9,0.2l6.7,-0.3l7.3,-0.8l7.9,-1.3l7.8,-1.8l8.4,-2.6l9,-3.5l6.5,-2.9l14.1,-7.7l14.8,-9.8l7.6,-5.8l8,-6.6l8.4,-7.5l7.8,-7.5l8.3,-8.5l8.6,-9.6l9.1,-10.7l-4.9,13.1l-10.5,25.5l-10.9,22.9l-6,11.6l-14.2,24.9l-7.8,12.5l-8.6,12.9l-9.4,13.2l-9.9,12.9l-10.7,13l-11.6,13.2l-18.5,19.2l-20.7,19.1l-13.2,11.1l-13.1,10.5l-13.1,9.8l-13,9.1l-13,8.6l-13.5,8.3l-13.3,7.7l-13.3,7.1l-13.3,6.6l-13.1,6l-13.6,5.8l-13.4,5.2l-13.3,4.8l-13.3,4.3l-13.1,3.8l-16.8,4.3l-16.5,3.6l-16.4,3l-16.2,2.4l-16.4,1.8l-16.1,1.3l-15.9,0.7l-15.7,0.3l-18.8,-1l-28.8,-2.7l-36.9,-4.1l-89.2,-10.9l-212.5,-27.3l-23.4,-2.7l-8.4,-0.7l-10.4,-0.5l-7,-0.9l-7.3,-1.4l-7.6,-2l-7.3,-2.4l-7.6,-2.9l-7.6,-3.5l-7.9,-4l-15.1,-9.1l-15.1,-10.8l-7.3,-5.9l-14,-12.9l-6.7,-6.9l-6.5,-7.3l-6.1,-7.4l-5.8,-7.8l-5.4,-7.9l-5.1,-8.3l-4.5,-8.3l-4.2,-8.6l-3.6,-8.7l-3.2,-8.9l-2.5,-8.9l-2,-9.1l-1.4,-9.1l-0.6,-8.2l-0.2,-8.4l0.4,-8.7l0.9,-8.6l1.3,-8.6l1.7,-8.7l2.2,-8.6l2.5,-8.3l3,-8.1l3.3,-8l3.6,-7.5l3.9,-7.1l4.3,-6.8l4.6,-6.1l4.6,-5.5l7.7,-7.3l7.9,-5.5l4.3,-2.1l4.2,-1.6l4.3,-1.1l4.4,-0.6l6,0.1l3.8,0.5l7.8,2.4l7.4,3.7l7.9,5.3l8.8,7.6l9.7,10.6z"/>
     </g>
    </g>
    <g id="svg_39" node-id="214">
     <g id="svg_40" node-id="154" group-id="3,7,16" clip-path="url(#XMLID_4_)">
      <path id="svg_41" visibility="hidden" target-y="879.8" target-x="1192.3" target-width="167.3999" target-height="195.20001" node-id="156" hidden="true" group-id="3,7,16" fill-rule="nonzero" fill="#e98a71" d="m1202.6,1055.2l3.2,3.8l3.4,3.2l3.7,2.8l3.9,2.4l4.1,2l8.7,3.1l4.6,1l6.2,1l6.2,0.4l6.3,0.1l12.2,-1l13.8,-2.8l6.9,-2l6.1,-2.4l5.8,-2.7l5.3,-2.9l5,-3.3l6.3,-4.8l5.7,-5.1l5.2,-5.4l4.7,-5.7l4.2,-5.7l7.1,-11.4l5.3,-10.6l3.2,-7.5l4.8,-14.2l2.2,-8.8l1.6,-8.5l0.9,-8.2l0.5,-8.2l-0.1,-7.9l-0.4,-7.4l-0.9,-7.4l-2.5,-13.2l-2.5,-9.3l-2.6,-7.9l-5.3,-12.9l-4.1,-8l-27,59.3l4.4,11.7l3.3,11.6l1.4,6.4l0.8,6.5l0.1,8.5l-2.8,15.8l-3.2,12.5l-2.2,6.1l-2.6,5.8l-4.4,7.2l-2.6,3.2l-2.9,2.9l-3.3,2.5l-24.6,13.7l-6.7,3.3l-4.7,1.9l-4.6,1.4l-4.8,1l-7.3,0.4l-3.9,-0.4l-17.1,-3.9l-6.1,-1.8l-5.5,-2.2l-3.6,-1.8l-3.3,-2.1l-4.9,-4.2l-4.6,-5.7l-2.4,-4l-2.5,-6.2l-0.8,-3.7l-0.6,-4.6l0.1,-4l1,-6.3l-0.8,8.1l-0.1,5.2l1,10.1l2.3,8.6l1.7,4.2l2.2,4.2l2.9,4.2z"/>
     </g>
    </g>
    <path id="svg_42" visibility="hidden" target-y="857.7" target-x="811.6" target-width="975.1" target-height="368.7" stroke-width="5.7979" stroke-linecap="round" stroke="#47161c" node-id="161" hidden="true" group-id="3,7,17" fill="none" d="m916.7,991.7l-6.8,-0.7l-6.7,-0.4l-13.1,0.6l-6.4,0.9l-6.3,1.3l-6.2,1.6l-5.9,2l-5.9,2.5l-5.5,2.7l-5.3,3.2l-5.1,3.5l-4.8,3.8l-4.4,4.2l-4.2,4.5l-3.8,4.9l-3.9,6l-3.3,6.2l-2.6,6.3l-2,6.5l-1.5,6.7l-1,6.7l-0.4,6.8l0.1,6.9l0.5,6.8l1.1,6.7l1.5,6.7l2,6.7l2.4,6.5l2.8,6.3l3.1,6l3.6,5.9l3.9,5.6l4.3,5.3l4.5,4.9l4.9,4.6l4.9,4l4.9,3.5l9.9,5.6l6.8,3l6.7,2.4l6.6,1.7l13,2.3l6,0.5l8.8,0.2l7.4,-0.3l7,-0.6l11.1,-2l3.2,4.6l8,9.9l8.8,8.9l4.9,4.4l5.6,4.4l6.2,4.4l6.6,3.9l7.2,3.8l7.9,3.4l12.8,4.2l12.2,2.5l8.1,0.9l7.9,0.4l7.5,-0.2l7.5,-0.5l13.9,-2.2l12.8,-3.3l13.7,-4.9l12.6,-5.9l9.2,-5.3l10.4,-7.7l7.5,-6.6l11.9,6.1l8.1,3.5l10.3,3.9l15.2,4.6l9,2.1l8.9,1.6l9.7,1.3l10.4,0.8l16,0.2l8.5,-0.5l8.9,-1l9,-1.4l16.6,-3.6l7.6,-2.3l10.1,-3.6l9.2,-3.7l8.4,-4l8.2,-4.4l13.7,-8.5l9.1,-6.6l7,-5.6l10,-9.1l12.4,5.8l7.2,2.7l8.2,2.5l11.5,2.3l6.3,0.7l6.3,0.3l6.5,-0.2l6.9,-0.6l11.5,-2.5l5,-1.6l4.6,-1.9l6,-3.1l5.5,-3.5l5.1,-3.9l9.4,-8.8l4.5,-4.9l20.1,-23.7l7.6,-8.2l5.4,-5.2l5.9,-5.2l6.4,-5.2l6.8,-4.7l7.6,-4.5l8.5,-4.4l7.6,-3.3l7.1,-2.5l6.6,-1.9l6.7,-1.4l6.5,-1l6.2,-0.5l9.4,-0.3l9.2,0.4l27.9,2.3l10,0.5l13.7,-0.1l14.9,-1.3l8,-1.3l8.6,-1.9l8.4,-2.3l9.2,-3l10,-3.9l8.3,-3.6l15.4,-7.7l10.8,-6.2l9.4,-6l8.8,-6.2l6.8,-5.5l4.3,-3.7l5.4,-5.6l1.6,-2.3l1,-2.6l-0.2,-0.7l-1.2,-0.7l-3.3,0.7l-34.6,15.3l-17.7,6.2l-15.8,4l-8.2,1.5l-8.6,1l-9,0.6l-8.2,0l-7.8,-0.4l-7.5,-0.9l-7.1,-1.3l-7.1,-1.7l-13.5,-4.5l-6.5,-2.7l-8.4,-4.1l-8.2,-4.6l-8.1,-5l-11.7,-8.1l-11.8,-8.8l-35.5,-27.9l-21.3,-15.1l-18.4,-11.2l-9.6,-5.1l-10.2,-4.7l-10.8,-4.3l-8.2,-2.8l-8.5,-2.6l-9.1,-2.2l-9.5,-1.9l-15,-2l-17.9,-1.1l-9.9,0.1l-10.8,0.5l-10.8,1.1l-11.7,1.7l-12.7,2.5l-19.2,5l-21.5,7.1l-3.4,-6.1l-7.1,-10.1l-6.7,-7.6l-4.3,-4.2l-4.5,-4l-5.2,-3.8l-5.8,-3.9l-6,-3.3l-6.8,-3.1l-7.4,-2.8l-7.6,-2.1l-7.2,-1.4l-6.9,-0.8l-6.9,-0.3l-6.3,0.1l-11.8,1.4l-10,2.2l-11.5,3.9l-6.4,3l-4.5,-4.9l-8.5,-7.7l-7.7,-5.6l-9.6,-5.6l-11.5,-4.7l-6.2,-1.9l-6.7,-1.4l-7.4,-1l-7.2,-0.4l-6.7,0.1l-6.3,0.6l-6.3,1l-10.9,2.9l-7.5,2.9l-6.2,2.9l-9.7,5.7l-5.4,4l-11.9,-1.3l-7.3,-0.2l-7.9,0.3l-9.3,1l-13,2.5l-7.1,2l-7,2.4l-7.1,3.1l-7.3,3.8l-10.5,6.8l-10.6,8.8l-5.7,5.8l-5,5.7l-4.3,5.8l-3.9,6.1l-3.3,6l-2.9,5.8l-4.5,11.6l-3.6,13.3l-2.1,13.2l-0.5,11.4z"/>
   </g>
   <path id="svg_43" visibility="hidden" target-y="933.8" target-x="1193" target-width="131" target-height="127.10004" stroke-width="5.7979" stroke-linecap="round" stroke="#47161c" node-id="165" hidden="true" group-id="3" fill="none" d="m1242.4,1016.8l0.8,-3.2l0.2,-5.6l-0.5,-2.6l-1.1,-3.3l-1.5,-2.9l-2,-2.6l-4.7,-4.3l-2.6,-1.5l-5.3,-2l-2.4,-0.4l-5.1,0l-4.3,0.6l-3.8,1l-3.6,1.5l-3,1.8l-2.6,2.2l-2.3,2.6l-1.8,2.7l-1.5,3.1l-1.9,6.4l-0.4,3.4l0,6.9l1.6,7.9l1.3,4l3.5,7l2.9,4.1l3.3,3.5l3.7,3.1l4.1,2.6l4.2,2.2l9.4,3.2l9.9,1.9l7.7,0.7l7.7,0.1l6.4,-0.4l6,-1l5.5,-1.6l5.4,-2l5,-2.4l9.1,-5.7l7.5,-6.3l5,-5l3.9,-4.6l3.4,-4.4l4.8,-7.3l4.8,-10.3l3,-10l1.2,-6.8l0.6,-6.5l0.1,-6.3l-0.3,-6.2l-1.7,-11.3l-1.9,-7.9l-2.1,-6.5l-2.2,-5.9l-4.2,-8.7"/>
   <path id="svg_44" visibility="hidden" target-y="1115.8" target-x="1359.7" target-width="28.6001" target-height="43.79993" stroke-width="5.7979" stroke-linecap="round" stroke="#47161c" node-id="167" hidden="true" group-id="3" fill="none" d="m1388.3,1115.8l-2.3,6.2l-2.6,5.3l-3.4,5.9l-9.2,13.2l-11.1,13.2"/>
  </g>
  <g id="svg_45" node-id="202">
   <g id="svg_46" node-id="206">
    <g id="svg_47" node-id="216">
     <path id="svg_48" target-y="1273.9" target-x="133.3" target-width="951.8" target-height="469.29993" node-id="176" group-id="4,8,18" fill-rule="nonzero" fill="#fcefcd" d="m249.9,161.4l-20.1,-1.1l-16.6,0.6l-8.1,0.8l-13.9,2.5l-6,1.6l-7.9,2.7l-6.8,2.8l-5.8,3.1l-5.6,3.4l-4.8,3.5l-4,3.3l-4.1,4l-6.3,7.3l-3.9,5.7l-9.8,16.1l-5,6.9l-3,3.4l-3.3,3.2l-3.9,3.2l-4.7,3.3l-6,3.5l-6,2.8l-6,2.3l-6.2,1.8l-11.8,2.3l-8.6,0.9l-7.9,0.3l-22.9,-0.7l-2.2,0.2l-1,0.4l-0.4,0.4l0.2,0.7l1,0.8l2.4,1.1l3.9,1.2l43.4,10.8l7.4,2.3l7.9,2.8l7.4,3.2l6.8,3.3l6.3,3.5l11.8,8.1l10.3,8.8l6.4,6.4l5.9,6.6l5.4,6.9l7.7,10.7l7.3,11.1l21,34l7.5,11.3l5.4,7.3l5.6,7.1l6.1,7l6.5,6.7l7.1,6.4l7.7,6.2l6,4.2l6.5,4.1l7.1,3.9l7.6,3.8l7.5,3.2l15.8,5.5l8.3,2.3l17,3.4l8.6,1.1l8.8,0.8l8.8,0.4l8.8,-0.1l8.6,-0.5l8.7,-0.9l8.6,-1.3l8.3,-1.9l8.2,-2.3l8,-2.7l7.7,-3.3l7.5,-3.7l7.1,-4.3l6.7,-4.8l6.4,-5.3l5.2,-5l7.9,-9.1l4.6,6.2l6.4,7.6l10,10.2l6.2,5.6l6.5,5.3l7.3,5.2l8.1,5.2l15.1,8.3l7.8,3.6l8.4,3.3l9.8,3.3l6.8,1.8l14.9,2.8l7.8,0.8l8.2,0.3l8.5,-0.2l12.9,-1.4l13.7,-3.2l7.4,-2.4l6.8,-2.6l6.3,-3l6.2,-3.2l10.8,-6.9l7.3,-5.5l6.1,-5.2l9.9,-10l8.9,2.6l11.3,2.8l16.6,2.9l9.6,1.2l9.7,0.7l10.4,0.2l11.1,-0.3l16.8,-1.6l18.2,-3.3l13.7,-3.4l18.2,-5.7l13.6,-5.6l7.4,-3.5l7.2,-3.8l7.3,-4.4l7.4,-5l7.1,-5.4l7,-6l6.9,-6.8l4.8,-5.4l4.6,-5.8l4.5,-6.2l4.2,-6.8l6.7,-12.9l2.6,-6.1l4.3,-12.3l3.4,-14.1l1.2,-7.5l1.2,-13.1l7.7,-2.6l10.9,-4.8l6.1,-3.4l6.5,-4.4l8.3,-6.9l4.2,-4.2l3.8,-4.5l3.6,-5l3.3,-5.6l2.5,-5.1l3.9,-10.7l1.3,-5.6l1.3,-7.6l0.6,-7.6l0,-7.7l-0.6,-7.7l-1.2,-7.6l-1.8,-7.5l-2.4,-7.3l-2.9,-7l-3.4,-6.6l-2.9,-4.8l-6.7,-8.7l-3.7,-4l-4.1,-3.6l-4.2,-3.3l-4.6,-2.9l-4.7,-2.5l-5.8,-2.3l-5.7,-1.7l-5.5,-1.1l-5.6,-0.6l-10.3,-0.1l-7.2,0.8l-6.1,1.1l-9.5,2.6l-7.5,-11.9l-10.1,-13.3l-6.8,-7.7l-10.3,-10.3l-12.5,-10.6l-6.9,-5.1l-7.7,-5.1l-7.8,-4.7l-8.5,-4.4l-9.3,-4.2l-7,-2.7l-15.1,-4.7l-8.3,-2l-9.3,-1.7l-9,-1.1l-8.6,-0.7l-8.3,-0.2l-16.5,0.7l-14.9,2l-9.7,2.1l-9,2.3l-8.1,2.6l-8.1,3l-13.4,5.8l-8.8,4.5l-6.4,3.8l-8.4,5.4l-3.5,-6.6l-6.7,-10.5l-4.5,-6.1l-5.7,-6.8l-8.8,-8.9l-5.2,-4.6l-5.5,-4.3l-6,-4.2l-6.6,-4l-6.9,-3.7l-7.5,-3.3l-8.1,-3l-10.4,-2.9l-7.1,-1.5l-9,-1.3l-6.2,-0.6l-14.1,-0.1l-7.3,0.5l-7.7,1.1l-8.1,1.8l-6,1.6l-12.2,4.8l-6.4,3.1l-6.2,3.5l-10.4,7.4l-4.8,3.9l-7.6,7.4l-8.5,10.1l-7.9,-4.9l-5.5,-3l-13.6,-6.1l-7.9,-2.9l-8.9,-2.6l-12.5,-2.4l-6.7,-0.7l-6.7,-0.3l-6.9,0.3l-7.1,0.7l-10.5,2.4l-5.3,1.8l-5.4,2.2l-5.2,2.6l-4.9,3l-8.8,6.5l-5.4,5l-4.9,5.3l-4.3,5.5l-4,5.8l-6.8,11.9l-2.9,6.1l-4.6,11.9l-2.8,8.7l-2.1,7.8l-2.8,13.4l-1.3,8.7l-0.9,8.7l-0.4,6.9z"/>
    </g>
    <g id="svg_49" node-id="217">
     <g id="svg_50" node-id="179" group-id="4,8,19" clip-path="url(#XMLID_5_)">
      <path id="svg_51" target-y="1413.7" target-x="84.3" target-width="1091.2999" target-height="410.40002" node-id="181" group-id="4,8,19" fill-rule="nonzero" fill="#e98a71" d="m-21.7,267.4l13.1,-3.3l24.1,-4.8l22.5,-3l20.9,-1.5l9.5,-0.2l12.9,0.3l11.9,0.7l10.9,1.2l10.9,1.7l9.9,2l18,4.9l15.3,5.4l11.1,4.7l10.8,5.2l10.3,5.6l10.2,6.1l19.1,12.6l13.7,10l49,38.1l10.8,7.7l7.4,4.8l7,4l6.7,3.3l5.2,2.1l5,1.7l4.9,1.1l4.7,0.7l4.9,0.2l4.7,-0.3l4.8,-1l4.7,-1.5l8.1,-4.1l22.2,-15.3l6.5,-3.9l4.5,-2.3l4.8,-1.8l5.1,-1.5l3.8,-0.8l8.4,-0.5l4.6,0.3l5.7,1l4.9,1.3l8.1,3.3l3.2,1.8l13.5,8.9l11.7,7.2l12.1,7l12.3,6.5l12.5,6.1l12.7,5.7l12.8,5.1l12.8,4.4l12.7,3.8l9.7,2.4l9.5,1.9l9.3,1.5l9.1,1l9.3,0.6l8.9,-0.1l8.6,-0.6l8.4,-1.1l6.5,-1.3l8.2,-2.4l5.5,-2l6.1,-2.7l6.8,-3.4l6.6,-3.9l7.1,-4.8l7.7,-5.9l9.4,2l14.8,2l8.8,0.5l10.3,0.2l14.4,-0.9l8,-1l8,-1.4l8.3,-1.9l8.7,-2.4l8.5,-2.9l8.8,-3.6l9,-4.3l7.3,-4l13.1,-8.4l5.9,-4.4l7.6,-6.4l6.7,-6.3l6.1,-6.4l10.8,-13.1l8.5,-12.6l6.4,-11.3l6.7,-14.3l3.3,-8.9l16.7,-5.5l8.5,-3.5l8.6,-4.1l5.5,-3l10.4,-7l4.8,-4l4.5,-4.3l4.1,-4.6l2.7,-3.7l4.7,-8.1l1.8,-4.3l1.8,-5.7l1.2,-5.5l0.6,-5.4l0.2,-5.4l-0.7,-10.4l-1.3,-7.4l-5.9,-23.5l-0.4,-3.5l0.1,-2.2l0.6,-1.4l1,-1l1.4,-0.3l1.7,0.2l2.3,1l3.2,2.1l8.6,7.8l42.4,45.4l17.1,17.7l25.4,25.2l15.1,14.3l-50.6,55.7l-42.8,48.2l-19.9,22.9l-23.3,28.3l-4.7,6.3l-2.5,4.1l-2,3.9l-1.6,4l-1.7,6.2l-4.2,24.8l-1.8,6.2l-1.5,4l-2.1,4l-2.6,4.2l-3.1,3.8l-3.8,3.9l-4.8,4l-5.2,3.6l-6.3,3.8l-7.8,3.8l-8,3.4l-9.6,3.5l-11.5,3.6l-11.5,3.1l-13.6,3.2l-15.8,3.2l-35.7,6.5l-32.9,5.4l-30.2,4.6l-30.3,4.1l-27.7,3.3l-25.4,2.6l-25.5,2l-23.2,1.4l-21.2,0.8l-21.2,0.3l-19.3,-0.2l-17.6,-0.6l-17.6,-1.1l-16,-1.5l-14.6,-1.8l-14.6,-2.2l-13.3,-2.5l-12.3,-2.6l-20.6,-5.1l-20,-5.6l-19.4,-6l-18.7,-6.4l-18.7,-6.9l-18,-7.3l-17.5,-7.6l-16.8,-7.9l-16.7,-8.4l-16.1,-8.5l-15.4,-8.7l-14.9,-8.8l-14.8,-9.3l-27.7,-18.6l-12.9,-9.4l-17,-12.9l-15.9,-12.7l-14.8,-12.4l-14.5,-12.8l-13.3,-12.4l-12.2,-11.8l-22.8,-23.3l-23.4,-26.2l-11.1,-13.3l-17.2,-21.9z"/>
     </g>
    </g>
    <g id="svg_52" node-id="218">
     <g id="svg_53" node-id="184" group-id="4,8,20" clip-path="url(#XMLID_5_)">
      <path id="svg_54" target-y="1363.1" target-x="318.4" target-width="155" target-height="165.40002" node-id="186" group-id="4,8,20" fill-rule="nonzero" fill="#e98a71" d="m217,133.4l-1.9,8l-1.4,7.8l-0.9,7.8l-0.4,7.7l0.1,7.8l0.6,7.6l1.1,7.4l1.6,7.3l2.1,7.1l2.5,6.9l3,6.6l3.4,6.3l4,6.1l4.3,5.7l4.8,5.4l5.3,5l6.3,4.8l9.3,6l6.1,3.2l6.5,3.1l7.4,2.8l5.1,1.6l11,2.3l5.7,0.6l5.9,0.2l6.1,-0.3l6,-0.9l6.1,-1.5l6.4,-2.2l4.5,-2l7.8,-4.5l5.2,-3.8l4.5,-3.9l4,-4l3.3,-3.7l5,-6.8l-6.1,6.4l-4,3.2l-4.7,3.3l-7.3,3.6l-4.2,1.5l-8.8,1.8l-8.9,0.3l-5.9,-0.6l-5.8,-1.1l-5.8,-1.7l-5.6,-2.2l-5.4,-2.5l-5.1,-3l-4.8,-3.3l-4.5,-3.6l-4,-3.9l-6.5,-8l-5.7,-9.3l-3.2,-6.7l-3,-7.1l-4.8,-15.1l-3.8,-15.9l-4.2,-24.4l-3.8,-29.5l-1.2,-6.3l-1.9,-5.2l-1.8,-2.1l-1,-0.4l-1.3,0.1l-1.5,0.7l-1.7,1.6l-2.3,2.9l-5,9l-6.8,16z"/>
     </g>
    </g>
    <path id="svg_55" target-y="1273.9" target-x="133.3" target-width="951.8" target-height="469.29993" stroke-width="5.7979" stroke-linecap="round" stroke="#47161c" node-id="191" group-id="4,8,21" fill="none" d="m249.9,161.4l-20.1,-1.1l-16.6,0.6l-8.1,0.8l-13.9,2.5l-6,1.6l-7.9,2.7l-6.8,2.8l-5.8,3.1l-5.6,3.4l-4.8,3.5l-4,3.3l-4.1,4l-6.3,7.3l-3.9,5.7l-9.8,16.1l-5,6.9l-3,3.4l-3.3,3.2l-3.9,3.2l-4.7,3.3l-6,3.5l-6,2.8l-6,2.3l-6.2,1.8l-11.8,2.3l-8.6,0.9l-7.9,0.3l-22.9,-0.7l-2.2,0.2l-1,0.4l-0.4,0.4l0.2,0.7l1,0.8l2.4,1.1l3.9,1.2l43.4,10.8l7.4,2.3l7.9,2.8l7.4,3.2l6.8,3.3l6.3,3.5l11.8,8.1l10.3,8.8l6.4,6.4l5.9,6.6l5.4,6.9l7.7,10.7l7.3,11.1l21,34l7.5,11.3l5.4,7.3l5.6,7.1l6.1,7l6.5,6.7l7.1,6.4l7.7,6.2l6,4.2l6.5,4.1l7.1,3.9l7.6,3.8l7.5,3.2l15.8,5.5l8.3,2.3l17,3.4l8.6,1.1l8.8,0.8l8.8,0.4l8.8,-0.1l8.6,-0.5l8.7,-0.9l8.6,-1.3l8.3,-1.9l8.2,-2.3l8,-2.7l7.7,-3.3l7.5,-3.7l7.1,-4.3l6.7,-4.8l6.4,-5.3l5.2,-5l7.9,-9.1l4.6,6.2l6.4,7.6l10,10.2l6.2,5.6l6.5,5.3l7.3,5.2l8.1,5.2l15.1,8.3l7.8,3.6l8.4,3.3l9.8,3.3l6.8,1.8l14.9,2.8l7.8,0.8l8.2,0.3l8.5,-0.2l12.9,-1.4l13.7,-3.2l7.4,-2.4l6.8,-2.6l6.3,-3l6.2,-3.2l10.8,-6.9l7.3,-5.5l6.1,-5.2l9.9,-10l8.9,2.6l11.3,2.8l16.6,2.9l9.6,1.2l9.7,0.7l10.4,0.2l11.1,-0.3l16.8,-1.6l18.2,-3.3l13.7,-3.4l18.2,-5.7l13.6,-5.6l7.4,-3.5l7.2,-3.8l7.3,-4.4l7.4,-5l7.1,-5.4l7,-6l6.9,-6.8l4.8,-5.4l4.6,-5.8l4.5,-6.2l4.2,-6.8l6.7,-12.9l2.6,-6.1l4.3,-12.3l3.4,-14.1l1.2,-7.5l1.2,-13.1l7.7,-2.6l10.9,-4.8l6.1,-3.4l6.5,-4.4l8.3,-6.9l4.2,-4.2l3.8,-4.5l3.6,-5l3.3,-5.6l2.5,-5.1l3.9,-10.7l1.3,-5.6l1.3,-7.6l0.6,-7.6l0,-7.7l-0.6,-7.7l-1.2,-7.6l-1.8,-7.5l-2.4,-7.3l-2.9,-7l-3.4,-6.6l-2.9,-4.8l-6.7,-8.7l-3.7,-4l-4.1,-3.6l-4.2,-3.3l-4.6,-2.9l-4.7,-2.5l-5.8,-2.3l-5.7,-1.7l-5.5,-1.1l-5.6,-0.6l-10.3,-0.1l-7.2,0.8l-6.1,1.1l-9.5,2.6l-7.5,-11.9l-10.1,-13.3l-6.8,-7.7l-10.3,-10.3l-12.5,-10.6l-6.9,-5.1l-7.7,-5.1l-7.8,-4.7l-8.5,-4.4l-9.3,-4.2l-7,-2.7l-15.1,-4.7l-8.3,-2l-9.3,-1.7l-9,-1.1l-8.6,-0.7l-8.3,-0.2l-16.5,0.7l-14.9,2l-9.7,2.1l-9,2.3l-8.1,2.6l-8.1,3l-13.4,5.8l-8.8,4.5l-6.4,3.8l-8.4,5.4l-3.5,-6.6l-6.7,-10.5l-4.5,-6.1l-5.7,-6.8l-8.8,-8.9l-5.2,-4.6l-5.5,-4.3l-6,-4.2l-6.6,-4l-6.9,-3.7l-7.5,-3.3l-8.1,-3l-10.4,-2.9l-7.1,-1.5l-9,-1.3l-6.2,-0.6l-14.1,-0.1l-7.3,0.5l-7.7,1.1l-8.1,1.8l-6,1.6l-12.2,4.8l-6.4,3.1l-6.2,3.5l-10.4,7.4l-4.8,3.9l-7.6,7.4l-8.5,10.1l-7.9,-4.9l-5.5,-3l-13.6,-6.1l-7.9,-2.9l-8.9,-2.6l-12.5,-2.4l-6.7,-0.7l-6.7,-0.3l-6.9,0.3l-7.1,0.7l-10.5,2.4l-5.3,1.8l-5.4,2.2l-5.2,2.6l-4.9,3l-8.8,6.5l-5.4,5l-4.9,5.3l-4.3,5.5l-4,5.8l-6.8,11.9l-2.9,6.1l-4.6,11.9l-2.8,8.7l-2.1,7.8l-2.8,13.4l-1.3,8.7l-0.9,8.7l-0.4,6.9z"/>
   </g>
   <path id="svg_56" target-y="1421.4" target-x="355.9" target-width="121.30002" target-height="92.40002" stroke-width="5.7979" stroke-linecap="round" stroke="#47161c" node-id="195" group-id="4" fill="none" d="m314.1,215.7l-1,-3.1l-0.9,-5.5l0.1,-3.9l0.6,-3.6l1.4,-3.7l1.9,-3.5l2.4,-3.1l2.8,-2.9l3.1,-2.5l3.5,-2.1l3.6,-1.8l3.7,-1.3l3.7,-0.9l3.8,-0.4l3.5,0.1l3.3,0.7l5.3,2.4l2.5,1.8l2.3,2.2l2.8,3.4l2.4,3.8l2.1,4.3l1.7,4.5l1.2,4.8l0.9,4.9l0.4,5.1l-0.1,4.9l-0.6,4.9l-1.2,4.7l-1.6,4.4l-2.3,4.1l-2.2,2.9l-2.5,2.6l-2.7,2.2l-3,2l-4.3,2.1l-4.7,1.6l-4.9,1.1l-10.3,0.9l-5.3,-0.1l-10.5,-1.2l-5,-1.1l-9.5,-2.9l-9.4,-4.3l-5,-3.1l-4.7,-3.5l-4.4,-4l-4.2,-4.4l-3.8,-4.7l-3.5,-5.1l-3.2,-5.5l-2.8,-5.7l-2.5,-5.9l-2.2,-6.3l-1.7,-6.6l-1.4,-6.7l-1,-6.9l-0.6,-7.1l-0.2,-7.3"/>
   <path id="svg_57" target-y="1593.5" target-x="400.6" target-width="150.80002" target-height="80.19995" stroke-width="5.7979" stroke-linecap="round" stroke="#47161c" node-id="197" group-id="4" fill="none" d="m445.4,413.7l-4.7,-9.6l-4.4,-8.1l-4.3,-6.7l-4.7,-6.4l-4.4,-5.3l-4.2,-4.2l-4.5,-3.9l-4.3,-3.1l-3.9,-2.3l-8,-3.4l-7.7,-1.8l-4,-0.5l-9.5,0.3l-17.2,2.2l-6,0.5l-6.5,0l-4.4,-0.4l-9.9,-2l-5.9,-2.1l-5.5,-2.3l-4.9,-2.7l-4.8,-3l-7.9,-6.2l-5.2,-4.9l-4,-4.3"/>
  </g>
 </g>
</svg>